<svg width="216" height="260" viewBox="0 0 216 260" fill="none" xmlns="http://www.w3.org/2000/svg">
<path fill-rule="evenodd" clip-rule="evenodd" d="M176.273 159.098C189.211 143.644 197 123.732 197 102C197 52.8467 157.153 13 108 13C58.8467 13 19 52.8467 19 102C19 127.509 29.7322 150.512 46.9277 166.74C34.8821 152.587 27.6129 134.243 27.6129 114.202C27.6129 69.4086 63.9248 33.0967 108.718 33.0967C153.511 33.0967 189.823 69.4086 189.823 114.202C189.823 130.805 184.834 146.243 176.273 159.098Z" fill="black"/>
<path fill-rule="evenodd" clip-rule="evenodd" d="M118.579 93.0462L118.464 124.36C120.651 123.012 123.063 121.446 125.586 119.729C125.582 110.688 125.58 100.542 125.58 89.1591C123.267 90.482 120.927 91.7812 118.579 93.0462ZM130.032 86.5639C129.99 95.1529 129.963 105.455 129.953 116.684C130.522 116.278 131.093 115.866 131.666 115.449C133.549 114.077 135.347 112.728 137.053 111.409C137.051 102.606 137.049 92.915 137.048 82.2638C134.766 83.7074 132.42 85.1449 130.032 86.5639ZM137.048 80.5794C136.229 81.1921 135.392 81.8101 134.537 82.4331C133.022 83.5354 131.515 84.605 130.036 85.6291C130.111 70.88 130.23 61.4227 130.385 61.4227C130.603 61.3687 132.187 63.2067 133.935 65.4771L137.048 69.5315C137.048 73.3224 137.048 77.0042 137.048 80.5794ZM141.706 79.252C141.62 83.5319 141.552 92.3915 141.503 107.763C144.259 105.332 146.578 103.137 148.519 101.158C148.518 95.8291 148.517 90.1594 148.517 84.1272L145.404 80.0728C144.798 79.285 144.211 78.5493 143.694 77.9266C143.039 78.3672 142.376 78.8091 141.706 79.252ZM142.395 76.4495C142.188 76.6149 141.98 76.7809 141.77 76.9474C141.797 76.3128 141.825 76.0185 141.854 76.0185C141.92 76.0021 142.112 76.1593 142.395 76.4495ZM125.579 88.6377C123.029 90.3128 120.652 91.7916 118.579 92.9958L118.752 46.0161L125.579 54.9358C125.579 67.2248 125.579 78.4268 125.579 88.6377ZM148.54 135.689C148.554 146.445 148.576 154.828 148.608 161.358C146.63 163.38 144.256 165.628 141.421 168.126C141.424 157.987 141.43 148.864 141.439 140.672C143.649 139.177 145.766 137.698 147.774 136.245C148.031 136.059 148.286 135.874 148.54 135.689ZM148.535 131.287C148.527 123.811 148.523 115.284 148.52 105.558C148.273 105.738 148.024 105.919 147.774 106.099C145.783 107.54 143.684 109.007 141.495 110.49C141.473 118.104 141.455 127.193 141.442 137.962C144.233 135.502 146.577 133.285 148.535 131.287ZM125.614 149.855C125.6 141.686 125.592 131.998 125.586 120.509C123.241 121.883 120.86 123.238 118.463 124.56L118.353 154.573C120.577 153.205 123.038 151.609 125.614 149.855ZM129.948 127.104C129.948 123.982 129.949 120.91 129.952 117.902C132.328 116.455 134.653 114.994 136.904 113.533L137.053 113.436C137.056 124.098 137.06 133.423 137.066 141.544C135.357 142.867 133.554 144.218 131.666 145.594C131.091 146.012 130.518 146.426 129.946 146.834C129.948 141.023 129.948 134.478 129.948 127.105V127.104ZM118.352 154.767L118.241 184.787C120.534 183.38 123.08 181.728 125.748 179.91C125.68 173.539 125.64 164.229 125.616 150.637C123.225 152.039 120.797 153.419 118.352 154.767ZM129.946 148.05C129.942 161.179 129.929 170.457 129.888 177.021C130.478 176.599 131.072 176.172 131.666 175.739C133.567 174.354 135.381 172.993 137.101 171.662C137.087 164.699 137.076 155.486 137.067 143.572L136.904 143.678C134.651 145.141 132.325 146.602 129.946 148.05ZM147.774 166.39C148.062 166.182 148.348 165.974 148.633 165.766C148.691 174.566 148.777 179.196 148.902 181.606C147.192 182.445 145.47 183.239 144.041 183.829C143.233 184.176 142.341 184.539 141.417 184.9C141.418 180.012 141.419 175.324 141.42 170.831C143.637 169.331 145.76 167.847 147.774 166.39ZM136.904 173.823C134.63 175.299 132.281 176.775 129.879 178.236C129.844 183.176 129.79 186.451 129.708 188.629C131.105 188.302 132.442 187.96 133.487 187.647C134.459 187.376 135.748 186.961 137.153 186.474C137.134 183.862 137.119 179.721 137.105 173.692L136.904 173.823ZM125.756 180.7C123.284 182.151 120.771 183.58 118.241 184.973L118.22 190.541C120.474 190.321 122.609 190.059 124.015 189.828C124.59 189.722 125.24 189.595 125.933 189.454C125.86 187.536 125.802 184.747 125.756 180.7ZM113.017 187.378C113.332 187.378 113.546 188.876 113.562 190.912C113.155 190.936 112.759 190.957 112.379 190.973C111.115 191.044 109.681 191.075 108.198 191.073C111.219 188.817 112.288 187.957 112.362 187.811C112.416 187.541 112.689 187.378 113.017 187.378ZM103.694 187.603C102.302 188.636 101.113 189.525 100.105 190.287V181.607L101.001 180.946C101.923 180.265 102.825 179.602 103.694 178.964V187.603ZM91.492 189.538C93.0257 189.814 94.8082 190.097 96.5162 190.335V184.246C94.6593 185.609 92.9375 186.869 91.492 187.924V189.538ZM91.492 181.117C91.8364 180.864 92.1846 180.608 92.536 180.351C93.8449 179.392 95.1751 178.418 96.5162 177.437V168.876C94.8893 170.067 93.2005 171.307 91.492 172.562V181.117ZM91.492 165.861C93.2345 164.569 94.9328 163.311 96.5162 162.141V153.476L95.4223 154.283L95.3943 154.304L91.492 157.183V165.861ZM87.9033 153.004C86.6896 153.897 85.4862 154.783 84.3146 155.646V146.993C85.2199 146.326 86.142 145.646 87.0733 144.96L87.9033 144.354V153.004ZM80.7258 158.298V149.64C78.8953 150.991 77.1941 152.248 75.7016 153.352V161.985C77.2278 160.871 78.9242 159.626 80.7258 158.298ZM72.1129 164.592C69.8046 166.257 68.3696 167.265 68.2963 167.265C68.133 167.265 68.0242 165.419 68.0242 163.194C68.0242 159.233 68.0786 159.07 69.7658 157.768C70.0444 157.552 70.873 156.932 72.1129 156.011V164.592ZM75.7016 146.623C77.0399 145.638 78.4953 144.561 79.9979 143.441L80.7258 142.905V134.278L75.7016 137.988V146.623ZM72.1129 140.638V149.25C70.1715 150.664 68.8899 151.584 68.7317 151.689C68.1874 151.961 68.0242 151.093 68.0242 143.658L72.1129 140.638ZM75.7016 131.098C77.2395 129.986 78.9399 128.752 80.7258 127.452V118.809L79.5315 119.688L79.4944 119.715C78.087 120.75 76.7916 121.703 75.7016 122.507V131.098ZM72.1129 125.128V133.682C69.8281 135.318 68.3778 136.331 68.2963 136.331C68.133 136.331 68.0242 134.486 67.9153 128.191L72.1129 125.128ZM75.7016 116.082C77.2439 114.965 78.9501 113.714 80.7258 112.396V103.663L75.7016 107.35V116.082ZM72.1129 109.984V118.649C70.1431 120.036 68.8532 120.894 68.6773 120.919C68.1874 121.082 68.0242 120.051 67.8609 113.105L72.1129 109.984ZM75.7016 101.036C77.2184 99.9465 78.9142 98.7186 80.7258 97.397V88.6907L75.7016 92.4016V101.036ZM72.1129 95.0522V103.589C70.0125 105.065 68.7016 105.941 68.5684 105.941C68.2419 105.941 68.0242 104.259 68.0242 98.0722L72.1129 95.0522ZM72.1129 171.388V180.097C70.9512 180.919 70.0286 181.557 69.4145 181.962C69.0175 181.767 68.6079 181.561 68.1908 181.347C68.0331 180.225 67.9014 178.133 67.8065 174.537L72.1129 171.388ZM75.7016 177.523V168.763L80.7258 165.09V173.848C78.9205 175.18 77.223 176.421 75.7016 177.523ZM75.7016 184.798V184.025C77.0451 183.063 78.7585 181.826 80.7258 180.4V186.731C80.5347 186.671 80.3506 186.612 80.1748 186.556C79.0534 186.171 77.4399 185.532 75.7016 184.798ZM87.9033 137.623L84.3146 140.263V131.627C85.4935 130.752 86.6962 129.861 87.9033 128.966V137.623ZM87.9033 122.21C86.6763 123.109 85.471 123.992 84.3146 124.837V116.167C85.5189 115.279 86.73 114.385 87.9033 113.515V122.21ZM87.3197 107.551L84.3146 109.757V101.027C85.5495 100.119 86.7528 99.234 87.9033 98.3869V107.123L87.371 107.514L87.3677 107.516L87.3651 107.518L87.3197 107.551ZM85.0595 94.2191L84.3146 94.7676V86.0399L85.6132 85.0787L87.9033 83.3836V92.1129C86.9462 92.8209 85.995 93.5253 85.0595 94.2191ZM84.3146 177.794V186.484C85.3764 185.675 86.5871 184.761 87.9033 183.778V175.182C86.6673 176.082 85.4656 176.957 84.3146 177.794ZM84.3146 162.466V171.188C85.4941 170.312 86.6978 169.418 87.9033 168.523V159.832L86.5834 160.807L84.3146 162.466ZM91.492 150.364C93.2084 149.102 94.9033 147.856 96.5162 146.673V138.036C94.8999 139.225 93.2062 140.47 91.492 141.726V150.364ZM91.492 134.982L91.5233 134.959L91.5644 134.929L94.7473 132.587C95.2237 132.236 95.8253 131.794 96.5162 131.286V122.581C94.9115 123.772 93.2173 125.027 91.492 126.306V134.982ZM94.2615 117.539L94.3228 117.494L94.34 117.482L96.5162 115.882V107.1C95.0391 108.193 93.5824 109.278 92.2437 110.283C91.9988 110.466 91.748 110.654 91.492 110.846V119.575C92.4214 118.892 93.3483 118.211 94.2615 117.539ZM91.492 104.489C93.1921 103.241 94.8913 101.993 96.5162 100.797V92.0394C95.7543 92.6005 94.8048 93.3006 93.7093 94.1082L93.703 94.1129L93.7017 94.1139L91.492 95.743V104.489ZM91.492 89.4611C93.2063 88.1957 94.9 86.947 96.5162 85.7558V77.0036C94.9124 78.1931 93.2188 79.4479 91.492 80.7267V89.4611ZM103.694 172.218C102.501 173.079 101.303 173.949 100.105 174.82V166.25C101.377 165.32 102.581 164.441 103.694 163.631V172.218ZM100.105 150.828V159.494C101.516 158.457 102.739 157.561 103.694 156.87V148.177C102.607 148.98 101.402 149.871 100.105 150.828ZM103.694 141.424C102.635 142.194 101.424 143.078 100.105 144.043V135.392C101.412 134.428 102.621 133.534 103.694 132.741V141.424ZM103.694 126.018C102.491 126.9 101.267 127.797 100.105 128.65V119.917C101.434 118.929 102.646 118.027 103.694 117.245V126.018ZM103.564 110.717C102.542 111.462 101.373 112.317 100.105 113.247V104.452C101.368 103.523 102.586 102.631 103.694 101.822V110.622L103.564 110.717ZM103.292 95.7929C102.335 96.5043 101.26 97.2996 100.105 98.1527V89.4016C100.572 89.0539 101.115 88.649 101.712 88.2044L101.713 88.2032L101.715 88.2017L101.724 88.1952L101.728 88.1926C102.336 87.7393 102.999 87.2449 103.694 86.7277V95.4948L103.292 95.7929ZM103.694 80.4642C102.621 81.256 101.412 82.148 100.105 83.111V74.3393C101.433 73.3523 102.644 72.4501 103.694 71.666V80.4642ZM107.282 184.953C109.116 183.603 111.201 182.076 113.563 180.351V176.297C113.563 174.08 113.399 172.242 113.181 172.242C113.004 172.242 110.659 173.891 107.282 176.343V184.953ZM107.282 169.64C109.438 168.1 111.547 166.611 113.563 165.215V156.565L110.723 158.565C110.226 158.905 109.008 159.776 107.282 161.025V169.64ZM107.282 154.251C109.585 152.556 111.564 151.082 112.164 150.604C113.633 149.41 113.742 149.139 113.742 145.286C113.742 143.061 113.579 141.216 113.307 141.216C113.089 141.216 111.184 142.518 109.116 144.146C108.747 144.427 108.121 144.895 107.282 145.519V154.251ZM107.282 138.828L113.742 134.161C113.742 127.866 113.524 126.02 113.307 126.02C113.034 126.02 110.531 127.703 107.701 129.765L107.282 130.077V138.828ZM107.282 123.39L113.688 118.694C113.742 112.182 113.579 110.283 113.361 110.337C113.112 110.337 110.485 112.206 107.282 114.565V123.39ZM107.282 107.981L113.742 103.228C113.742 96.9325 113.579 95.0874 113.361 95.0874C113.091 95.0874 110.409 96.9582 107.282 99.2145V107.981ZM107.282 92.8296L113.742 88.0325C113.742 81.7373 113.579 79.8922 113.361 79.8922C113.112 79.8922 110.485 81.7613 107.282 84.0788V92.8296ZM107.282 77.8037L107.32 77.7757L113.688 73.1086C113.742 66.5964 113.579 64.697 113.361 64.7512C113.107 64.7512 110.472 66.6499 107.282 68.9822V77.8037Z" fill="black"/>
<path d="M73.3047 229L71.9007 224.41H64.8807L63.4767 229H59.0757L65.8797 209.641H70.8747L77.7057 229H73.3047ZM69.5247 216.499C69.4347 216.193 69.3177 215.806 69.1737 215.338C69.0297 214.87 68.8857 214.393 68.7417 213.907C68.5977 213.421 68.4807 212.998 68.3907 212.638C68.3007 212.998 68.1747 213.448 68.0127 213.988C67.8687 214.51 67.7247 215.014 67.5807 215.5C67.4547 215.968 67.3557 216.301 67.2837 216.499L65.9067 220.981H70.9287L69.5247 216.499ZM95.4023 229H91.3253V213.124H86.6003C86.4923 213.952 86.3753 214.852 86.2493 215.824C86.1413 216.796 86.0153 217.786 85.8713 218.794C85.7453 219.784 85.6103 220.729 85.4663 221.629C85.3223 222.511 85.1783 223.294 85.0343 223.978C84.8003 225.094 84.4853 226.048 84.0893 226.84C83.7113 227.632 83.1803 228.235 82.4963 228.649C81.8303 229.063 80.9573 229.27 79.8773 229.27C79.5173 229.27 79.1753 229.243 78.8513 229.189C78.5273 229.135 78.2213 229.063 77.9333 228.973V225.625C78.1673 225.697 78.3923 225.76 78.6083 225.814C78.8423 225.868 79.0943 225.895 79.3643 225.895C79.7243 225.895 80.0213 225.778 80.2553 225.544C80.4893 225.31 80.6963 224.914 80.8763 224.356C81.0563 223.78 81.2363 222.988 81.4163 221.98C81.5063 221.548 81.6143 220.936 81.7403 220.144C81.8663 219.334 82.0103 218.389 82.1723 217.309C82.3523 216.211 82.5323 215.023 82.7123 213.745C82.8923 212.449 83.0633 211.108 83.2253 209.722H95.4023V229ZM100.265 229V209.722H104.342V217.12H105.962C107.78 217.12 109.265 217.372 110.417 217.876C111.587 218.38 112.451 219.073 113.009 219.955C113.567 220.837 113.846 221.845 113.846 222.979C113.846 224.239 113.567 225.319 113.009 226.219C112.451 227.119 111.587 227.812 110.417 228.298C109.247 228.766 107.735 229 105.881 229H100.265ZM105.719 225.652C106.961 225.652 107.933 225.454 108.635 225.058C109.355 224.662 109.715 223.969 109.715 222.979C109.715 222.295 109.535 221.773 109.175 221.413C108.833 221.053 108.338 220.81 107.69 220.684C107.06 220.54 106.295 220.468 105.395 220.468H104.342V225.652H105.719ZM128.499 209.452V211.828C130.605 211.882 132.279 212.251 133.521 212.935C134.781 213.601 135.681 214.465 136.221 215.527C136.779 216.589 137.058 217.75 137.058 219.01C137.058 219.82 136.914 220.648 136.626 221.494C136.356 222.34 135.888 223.123 135.222 223.843C134.574 224.545 133.701 225.121 132.603 225.571C131.505 226.021 130.137 226.264 128.499 226.3V229.27H124.827V226.3C123.171 226.264 121.785 226.021 120.669 225.571C119.571 225.121 118.698 224.536 118.05 223.816C117.402 223.096 116.943 222.322 116.673 221.494C116.403 220.648 116.268 219.82 116.268 219.01C116.268 218.074 116.421 217.183 116.727 216.337C117.033 215.491 117.519 214.735 118.185 214.069C118.851 213.403 119.733 212.872 120.831 212.476C121.929 212.08 123.261 211.864 124.827 211.828V209.452H128.499ZM124.827 215.014C123.657 215.068 122.721 215.275 122.019 215.635C121.335 215.977 120.84 216.436 120.534 217.012C120.246 217.588 120.102 218.245 120.102 218.983C120.102 219.793 120.264 220.504 120.588 221.116C120.93 221.71 121.443 222.187 122.127 222.547C122.829 222.889 123.729 223.087 124.827 223.141V215.014ZM128.499 223.141C129.597 223.087 130.488 222.889 131.172 222.547C131.874 222.187 132.387 221.71 132.711 221.116C133.053 220.504 133.224 219.793 133.224 218.983C133.224 218.245 133.071 217.588 132.765 217.012C132.477 216.436 131.982 215.977 131.28 215.635C130.596 215.275 129.669 215.068 128.499 215.014V223.141ZM152.512 229L151.108 224.41H144.088L142.684 229H138.283L145.087 209.641H150.082L156.913 229H152.512ZM148.732 216.499C148.642 216.193 148.525 215.806 148.381 215.338C148.237 214.87 148.093 214.393 147.949 213.907C147.805 213.421 147.688 212.998 147.598 212.638C147.508 212.998 147.382 213.448 147.22 213.988C147.076 214.51 146.932 215.014 146.788 215.5C146.662 215.968 146.563 216.301 146.491 216.499L145.114 220.981H150.136L148.732 216.499ZM60.6026 256L55.9586 240.88H55.8506C55.8686 241.24 55.8956 241.78 55.9316 242.5C55.9676 243.22 56.0036 243.994 56.0396 244.822C56.0756 245.632 56.0936 246.37 56.0936 247.036V256H52.4486V236.722H58.0106L62.5736 251.464H62.6546L67.4876 236.722H73.0496V256H69.2426V246.874C69.2426 246.262 69.2516 245.56 69.2696 244.768C69.3056 243.976 69.3326 243.229 69.3506 242.527C69.3866 241.807 69.4136 241.267 69.4316 240.907H69.3236L64.3556 256H60.6026ZM89.0163 256H77.9193V236.722H89.0163V240.07H81.9963V244.309H88.5303V247.657H81.9963V252.625H89.0163V256ZM100.453 256H96.3757V240.124H91.1377V236.722H105.691V240.124H100.453V256ZM124.377 256H119.733L112.74 246.226V256H108.663V236.722H112.74V246.064L119.652 236.722H123.999L116.979 245.983L124.377 256ZM143.773 246.334C143.773 247.828 143.584 249.187 143.206 250.411C142.846 251.617 142.288 252.661 141.532 253.543C140.794 254.425 139.84 255.1 138.67 255.568C137.518 256.036 136.159 256.27 134.593 256.27C133.027 256.27 131.659 256.036 130.489 255.568C129.337 255.082 128.383 254.407 127.627 253.543C126.889 252.661 126.331 251.608 125.953 250.384C125.593 249.16 125.413 247.801 125.413 246.307C125.413 244.309 125.737 242.572 126.385 241.096C127.051 239.62 128.059 238.477 129.409 237.667C130.777 236.839 132.514 236.425 134.62 236.425C136.708 236.425 138.427 236.839 139.777 237.667C141.127 238.477 142.126 239.629 142.774 241.123C143.44 242.599 143.773 244.336 143.773 246.334ZM129.706 246.334C129.706 247.684 129.877 248.845 130.219 249.817C130.561 250.789 131.092 251.536 131.812 252.058C132.532 252.58 133.459 252.841 134.593 252.841C135.763 252.841 136.699 252.58 137.401 252.058C138.121 251.536 138.643 250.789 138.967 249.817C139.309 248.845 139.48 247.684 139.48 246.334C139.48 244.3 139.102 242.707 138.346 241.555C137.59 240.403 136.348 239.827 134.62 239.827C133.468 239.827 132.532 240.088 131.812 240.61C131.092 241.132 130.561 241.879 130.219 242.851C129.877 243.823 129.706 244.984 129.706 246.334ZM163.561 256H159.484V247.684H151.843V256H147.766V236.722H151.843V244.282H159.484V236.722H163.561V256Z" fill="black"/>
<path d="M74 0.5H114L74 63.5V0.5Z" fill="white"/>
</svg>
