<svg width="178" height="179" viewBox="0 0 178 179" fill="none" xmlns="http://www.w3.org/2000/svg">
<path fill-rule="evenodd" clip-rule="evenodd" d="M157.273 146.098C170.211 130.644 178 110.732 178 89C178 39.8467 138.153 0 89 0C39.8467 0 0 39.8467 0 89C0 114.509 10.7322 137.512 27.9277 153.74C15.8821 139.587 8.6129 121.243 8.6129 101.202C8.6129 56.4086 44.9248 20.0967 89.7177 20.0967C134.511 20.0967 170.823 56.4086 170.823 101.202C170.823 117.805 165.834 133.243 157.273 146.098Z" fill="black"/>
<path fill-rule="evenodd" clip-rule="evenodd" d="M99.5788 80.0462L99.4637 111.36C101.651 110.012 104.063 108.446 106.586 106.729C106.582 97.6876 106.58 87.5422 106.58 76.1591C104.267 77.482 101.927 78.7812 99.5788 80.0462ZM111.032 73.5639C110.99 82.1529 110.963 92.4553 110.953 103.684C111.522 103.278 112.093 102.866 112.666 102.449C114.549 101.077 116.347 99.7282 118.053 98.409C118.051 89.6063 118.049 79.915 118.048 69.2638C115.766 70.7074 113.42 72.1449 111.032 73.5639ZM118.048 67.5794C117.229 68.1921 116.392 68.8101 115.537 69.4331C114.022 70.5354 112.515 71.605 111.036 72.6291C111.111 57.88 111.23 48.4227 111.385 48.4227C111.603 48.3687 113.187 50.2067 114.935 52.4771L118.048 56.5315C118.048 60.3224 118.048 64.0042 118.048 67.5794ZM122.706 66.252C122.62 70.5319 122.552 79.3915 122.503 94.7633C125.259 92.332 127.578 90.1374 129.519 88.1581C129.518 82.8291 129.517 77.1594 129.517 71.1272L126.404 67.0728C125.798 66.285 125.211 65.5493 124.694 64.9266C124.039 65.3672 123.376 65.8091 122.706 66.252ZM123.395 63.4495C123.188 63.6149 122.98 63.7809 122.77 63.9474C122.797 63.3128 122.825 63.0185 122.854 63.0185C122.92 63.0021 123.112 63.1593 123.395 63.4495ZM106.579 75.6377C104.029 77.3128 101.652 78.7916 99.579 79.9958L99.7517 33.0161L106.579 41.9358C106.579 54.2248 106.579 65.4268 106.579 75.6377ZM129.54 122.689C129.554 133.445 129.576 141.828 129.608 148.358C127.63 150.38 125.256 152.628 122.421 155.126C122.424 144.987 122.43 135.864 122.439 127.672C124.649 126.177 126.766 124.698 128.774 123.245C129.031 123.059 129.286 122.874 129.54 122.689ZM129.535 118.287C129.527 110.811 129.523 102.284 129.52 92.5583C129.273 92.7385 129.024 92.9188 128.774 93.0994C126.783 94.5405 124.684 96.0074 122.495 97.4898C122.473 105.104 122.455 114.193 122.442 124.962C125.233 122.502 127.577 120.285 129.535 118.287ZM106.614 136.855C106.6 128.686 106.592 118.998 106.586 107.509C104.241 108.883 101.86 110.238 99.4629 111.56L99.3526 141.573C101.577 140.205 104.038 138.609 106.614 136.855ZM110.948 114.104C110.948 110.982 110.949 107.91 110.952 104.902C113.328 103.455 115.653 101.994 117.904 100.533L118.053 100.436C118.056 111.098 118.06 120.423 118.066 128.544C116.357 129.867 114.554 131.218 112.666 132.594C112.091 133.012 111.518 133.426 110.946 133.834C110.948 128.023 110.948 121.478 110.948 114.105V114.104ZM99.3519 141.767L99.2415 171.787C101.534 170.38 104.08 168.728 106.748 166.91C106.68 160.539 106.64 151.229 106.616 137.637C104.225 139.039 101.797 140.419 99.3519 141.767ZM110.946 135.05C110.942 148.179 110.929 157.457 110.888 164.021C111.478 163.599 112.072 163.172 112.666 162.739C114.567 161.354 116.381 159.993 118.101 158.662C118.087 151.699 118.076 142.486 118.067 130.572L117.904 130.678C115.651 132.141 113.325 133.602 110.946 135.05ZM128.774 153.39C129.062 153.182 129.348 152.974 129.633 152.766C129.691 161.566 129.777 166.196 129.902 168.606C128.192 169.445 126.47 170.239 125.041 170.829C124.233 171.176 123.341 171.539 122.417 171.9C122.418 167.012 122.419 162.324 122.42 157.831C124.637 156.331 126.76 154.847 128.774 153.39ZM117.904 160.823C115.63 162.299 113.281 163.775 110.879 165.236C110.844 170.176 110.79 173.451 110.708 175.629C112.105 175.302 113.442 174.96 114.487 174.647C115.459 174.376 116.748 173.961 118.153 173.474C118.134 170.862 118.119 166.721 118.105 160.692L117.904 160.823ZM106.756 167.7C104.284 169.151 101.771 170.58 99.2408 171.973L99.2203 177.541C101.474 177.321 103.609 177.059 105.015 176.828C105.59 176.722 106.24 176.595 106.933 176.454C106.86 174.536 106.802 171.747 106.756 167.7ZM94.017 174.378C94.3319 174.378 94.5459 175.876 94.5622 177.912C94.1548 177.936 93.7588 177.957 93.3786 177.973C92.1151 178.044 90.681 178.075 89.1979 178.073C92.219 175.817 93.2879 174.957 93.3616 174.811C93.4162 174.541 93.6893 174.378 94.017 174.378ZM84.6936 174.603C83.3019 175.636 82.113 176.525 81.1049 177.287V168.607L82.0015 167.946C82.923 167.265 83.8245 166.602 84.6936 165.964V174.603ZM72.492 176.538C74.0257 176.814 75.8082 177.097 77.5162 177.335V171.246C75.6593 172.609 73.9375 173.869 72.492 174.924V176.538ZM72.492 168.117C72.8364 167.864 73.1846 167.608 73.536 167.351C74.8449 166.392 76.1751 165.418 77.5162 164.437V155.876C75.8893 157.067 74.2005 158.307 72.492 159.562V168.117ZM72.492 152.861C74.2345 151.569 75.9328 150.311 77.5162 149.141V140.476L76.4223 141.283L76.3943 141.304L72.492 144.183V152.861ZM68.9033 140.004C67.6896 140.897 66.4862 141.783 65.3146 142.646V133.993C66.2199 133.326 67.142 132.646 68.0733 131.96L68.9033 131.354V140.004ZM61.7258 145.298V136.64C59.8953 137.991 58.1941 139.248 56.7016 140.352V148.985C58.2278 147.871 59.9242 146.626 61.7258 145.298ZM53.1129 151.592C50.8046 153.257 49.3696 154.265 49.2963 154.265C49.133 154.265 49.0242 152.419 49.0242 150.194C49.0242 146.233 49.0786 146.07 50.7658 144.768C51.0444 144.552 51.873 143.932 53.1129 143.011V151.592ZM56.7016 133.623C58.0399 132.638 59.4953 131.561 60.9979 130.441L61.7258 129.905V121.278L56.7016 124.988V133.623ZM53.1129 127.638V136.25C51.1715 137.664 49.8899 138.584 49.7317 138.689C49.1874 138.961 49.0242 138.093 49.0242 130.658L53.1129 127.638ZM56.7016 118.098C58.2395 116.986 59.9399 115.752 61.7258 114.452V105.809L60.5315 106.688L60.4944 106.715C59.087 107.75 57.7916 108.703 56.7016 109.507V118.098ZM53.1129 112.128V120.682C50.8281 122.318 49.3778 123.331 49.2963 123.331C49.133 123.331 49.0242 121.486 48.9153 115.191L53.1129 112.128ZM56.7016 103.082C58.2439 101.965 59.9501 100.714 61.7258 99.3956V90.6626L56.7016 94.35V103.082ZM53.1129 96.9838V105.649C51.1431 107.036 49.8532 107.894 49.6773 107.919C49.1874 108.082 49.0242 107.051 48.8609 100.105L53.1129 96.9838ZM56.7016 88.0357C58.2184 86.9465 59.9142 85.7186 61.7258 84.397V75.6907L56.7016 79.4016V88.0357ZM53.1129 82.0522V90.589C51.0125 92.0649 49.7016 92.9411 49.5684 92.9411C49.2419 92.9411 49.0242 91.2588 49.0242 85.0722L53.1129 82.0522ZM53.1129 158.388V167.097C51.9512 167.919 51.0286 168.557 50.4145 168.962C50.0175 168.767 49.6079 168.561 49.1908 168.347C49.0331 167.225 48.9014 165.133 48.8065 161.537L53.1129 158.388ZM56.7016 164.523V155.763L61.7258 152.09V160.848C59.9205 162.18 58.223 163.421 56.7016 164.523ZM56.7016 171.798V171.025C58.0451 170.063 59.7585 168.826 61.7258 167.4V173.731C61.5347 173.671 61.3506 173.612 61.1748 173.556C60.0534 173.171 58.4399 172.532 56.7016 171.798ZM68.9033 124.623L65.3146 127.263V118.627C66.4935 117.752 67.6962 116.861 68.9033 115.966V124.623ZM68.9033 109.21C67.6763 110.109 66.471 110.992 65.3146 111.837V103.167C66.5189 102.279 67.73 101.385 68.9033 100.515V109.21ZM68.3197 94.5513L65.3146 96.7567V88.0272C66.5495 87.1194 67.7528 86.234 68.9033 85.3869V94.1231L68.371 94.5137L68.3677 94.5161L68.3651 94.518L68.3197 94.5513ZM66.0595 81.2191L65.3146 81.7676V73.0399L66.6132 72.0787L68.9033 70.3836V79.1129C67.9462 79.8209 66.995 80.5253 66.0595 81.2191ZM65.3146 164.794V173.484C66.3764 172.675 67.5871 171.761 68.9033 170.778V162.182C67.6673 163.082 66.4656 163.957 65.3146 164.794ZM65.3146 149.466V158.188C66.4941 157.312 67.6978 156.418 68.9033 155.523V146.832L67.5834 147.807L65.3146 149.466ZM72.492 137.364C74.2084 136.102 75.9033 134.856 77.5162 133.673V125.036C75.8999 126.225 74.2062 127.47 72.492 128.726V137.364ZM72.492 121.982L72.5233 121.959L72.5644 121.929L75.7473 119.587C76.2237 119.236 76.8253 118.794 77.5162 118.286V109.581C75.9115 110.772 74.2173 112.027 72.492 113.306V121.982ZM75.2615 104.539L75.3228 104.494L75.34 104.482L77.5162 102.882V94.0996C76.0391 95.1934 74.5824 96.2779 73.2437 97.2826C72.9988 97.4664 72.748 97.6543 72.492 97.8458V106.575C73.4214 105.892 74.3483 105.211 75.2615 104.539ZM72.492 91.4893C74.1921 90.2412 75.8913 88.9929 77.5162 87.7973V79.0394C76.7543 79.6005 75.8048 80.3006 74.7093 81.1082L74.703 81.1129L74.7017 81.1139L72.492 82.743V91.4893ZM72.492 76.4611C74.2063 75.1957 75.9 73.947 77.5162 72.7558V64.0036C75.9124 65.1931 74.2188 66.4479 72.492 67.7267V76.4611ZM84.6936 159.218C83.5013 160.079 82.3026 160.949 81.1049 161.82V153.25C82.3767 152.32 83.5815 151.441 84.6936 150.631V159.218ZM81.1049 137.828V146.494C82.5161 145.457 83.7392 144.561 84.6936 143.87V135.177C83.6074 135.98 82.4015 136.871 81.1049 137.828ZM84.6936 128.424C83.635 129.194 82.4235 130.078 81.1049 131.043V122.392C82.4117 121.428 83.6215 120.534 84.6936 119.741V128.424ZM84.6936 113.018C83.4909 113.9 82.2669 114.797 81.1049 115.65V106.917C82.4342 105.929 83.6462 105.027 84.6936 104.245V113.018ZM84.5643 97.7167C83.5416 98.4619 82.3731 99.317 81.1049 100.247V91.452C82.3679 90.5235 83.5858 89.6313 84.6936 88.8225V97.6216L84.5643 97.7167ZM84.2922 82.7929C83.3348 83.5043 82.2604 84.2996 81.1049 85.1527V76.4016C81.5723 76.0539 82.1153 75.649 82.7117 75.2044L82.7134 75.2032L82.7154 75.2017L82.724 75.1952L82.7276 75.1926C83.3357 74.7393 83.9988 74.2449 84.6936 73.7277V82.4948L84.2922 82.7929ZM84.6936 67.4642C83.6213 68.256 82.4115 69.148 81.1049 70.111V61.3393C82.4327 60.3523 83.6442 59.4501 84.6936 58.666V67.4642ZM88.2823 171.953C90.1162 170.603 92.2008 169.076 94.5632 167.351V163.297C94.5632 161.08 94.3993 159.242 94.1808 159.242C94.0043 159.242 91.6594 160.891 88.2823 163.343V171.953ZM88.2823 156.64C90.4382 155.1 92.5472 153.611 94.5632 152.215V143.565L91.7231 145.565C91.2261 145.905 90.0082 146.776 88.2823 148.025V156.64ZM88.2823 141.251C90.5849 139.556 92.5641 138.082 93.1637 137.604C94.6332 136.41 94.742 136.139 94.742 132.286C94.742 130.061 94.5787 128.216 94.3066 128.216C94.0889 128.216 92.184 129.518 90.1158 131.146C89.7472 131.427 89.1209 131.895 88.2823 132.519V141.251ZM88.2823 125.828L94.742 121.161C94.742 114.866 94.5243 113.02 94.3066 113.02C94.0345 113.02 91.5309 114.703 88.7007 116.765L88.2823 117.077V125.828ZM88.2823 110.39L94.6876 105.694C94.742 99.182 94.5787 97.2826 94.361 97.3368C94.1116 97.3368 91.4848 99.2059 88.2823 101.565V110.39ZM88.2823 94.9809L94.742 90.2277C94.742 83.9325 94.5787 82.0874 94.361 82.0874C94.0909 82.0874 91.4086 83.9582 88.2823 86.2145V94.9809ZM88.2823 79.8296L94.742 75.0325C94.742 68.7373 94.5787 66.8922 94.361 66.8922C94.1116 66.8922 91.4848 68.7613 88.2823 71.0788V79.8296ZM88.2823 64.8037L88.3197 64.7757L94.6876 60.1086C94.742 53.5964 94.5787 51.697 94.361 51.7512C94.1065 51.7512 91.4719 53.6499 88.2823 55.9822V64.8037Z" fill="black"/>
</svg>
